<?xml version="1.0" encoding="UTF-8"?>
<svg version="1.1" xmlns="http://www.w3.org/2000/svg" width="64" height="64">
<path d="M0 0 C1.98 0 3.96 0 6 0 C6 1.98 6 3.96 6 6 C5.34 6 4.68 6 4 6 C5.75454385 9.18234105 5.75454385 9.18234105 8 12 C9.810285 12.09879565 11.62452727 12.12971514 13.4375 12.125 C14.42621094 12.12757812 15.41492188 12.13015625 16.43359375 12.1328125 C18.98909076 12.17228415 18.98909076 12.17228415 21 11 C20.42655063 8.13275314 20.1385485 7.1385485 18 5 C17.67 5.33 17.34 5.66 17 6 C15.00041636 6.04080783 12.99954746 6.04254356 11 6 C11 4.02 11 2.04 11 0 C12.98 0 14.96 0 17 0 C17 0.66 17 1.32 17 2 C18.175625 2.185625 18.175625 2.185625 19.375 2.375 C22 3 22 3 24 5 C24.26991906 7.68839385 24.08737357 10.29141936 24 13 C24.66 13 25.32 13 26 13 C26.33 12.01 26.66 11.02 27 10 C27.66 10 28.32 10 29 10 C29 8.68 29 7.36 29 6 C28.34 6 27.68 6 27 6 C27 4.02 27 2.04 27 0 C28.98 0 30.96 0 33 0 C33 1.98 33 3.96 33 6 C32.34 6 31.68 6 31 6 C31 7.32 31 8.64 31 10 C32.485 10.495 32.485 10.495 34 11 C34 11.66 34 12.32 34 13 C34.66 13 35.32 13 36 13 C35.938125 11.741875 35.87625 10.48375 35.8125 9.1875 C35.81940007 5.28895989 35.81940007 5.28895989 37.25 3 C39 2 39 2 43 2 C43 1.34 43 0.68 43 0 C44.98 0 46.96 0 49 0 C49 1.98 49 3.96 49 6 C46.33333333 6 43.66666667 6 41 6 C40.34 6.66 39.68 7.32 39 8 C39 8.99 39 9.98 39 11 C41.58008592 12.29004296 43.55741574 12.20410224 46.4375 12.25 C47.40558594 12.27578125 48.37367187 12.3015625 49.37109375 12.328125 C52.01371966 12.21763488 52.01371966 12.21763488 53.78515625 10.671875 C55.20089435 8.90039433 55.20089435 8.90039433 56 6 C55.34 6 54.68 6 54 6 C54 4.02 54 2.04 54 0 C55.98 0 57.96 0 60 0 C60 1.98 60 3.96 60 6 C59.34 6 58.68 6 58 6 C58.061875 6.928125 58.12375 7.85625 58.1875 8.8125 C58 12 58 12 56.90625 13.6875 C54.06322767 15.64499078 51.71512984 15.28856821 48.3125 15.1875 C46.54326172 15.14689453 46.54326172 15.14689453 44.73828125 15.10546875 C43.83464844 15.07066406 42.93101563 15.03585938 42 15 C42 15.99 42 16.98 42 18 C42.556875 17.773125 43.11375 17.54625 43.6875 17.3125 C46.92123084 16.87550935 48.39073978 18.18801373 51 20 C51 19.34 51 18.68 51 18 C52.98 18 54.96 18 57 18 C57 19.98 57 21.96 57 24 C55.02 24 53.04 24 51 24 C51 23.34 51 22.68 51 22 C49.68 23.32 48.36 24.64 47 26 C47.99 26.33 48.98 26.66 50 27 C50 27.66 50 28.32 50 29 C51.32 29 52.64 29 54 29 C54 28.34 54 27.68 54 27 C55.98 27 57.96 27 60 27 C60 28.98 60 30.96 60 33 C58.02 33 56.04 33 54 33 C54 32.34 54 31.68 54 31 C52.68 31 51.36 31 50 31 C49.67 31.99 49.34 32.98 49 34 C48.34 34 47.68 34 47 34 C48.32 35.32 49.64 36.64 51 38 C51 37.34 51 36.68 51 36 C52.98 36 54.96 36 57 36 C57 37.98 57 39.96 57 42 C55.02 42 53.04 42 51 42 C51 41.34 51 40.68 51 40 C49.6078125 40.7734375 49.6078125 40.7734375 48.1875 41.5625 C45 43 45 43 42 42 C42 42.99 42 43.98 42 45 C43.35544922 44.94779297 43.35544922 44.94779297 44.73828125 44.89453125 C45.91777344 44.86746094 47.09726562 44.84039062 48.3125 44.8125 C49.48425781 44.77769531 50.65601563 44.74289063 51.86328125 44.70703125 C55 45 55 45 56.90625 46.3125 C58.54401207 48.8393329 58.1953866 51.06920094 58 54 C58.66 54 59.32 54 60 54 C60 55.98 60 57.96 60 60 C58.02 60 56.04 60 54 60 C54 58.02 54 56.04 54 54 C54.66 54 55.32 54 56 54 C54.24545615 50.81765895 54.24545615 50.81765895 52 48 C50.189715 47.90120435 48.37547273 47.87028486 46.5625 47.875 C45.57378906 47.87242188 44.58507813 47.86984375 43.56640625 47.8671875 C41.01090924 47.82771585 41.01090924 47.82771585 39 49 C39.57344937 51.86724686 39.8614515 52.8614515 42 55 C42.33 54.67 42.66 54.34 43 54 C44.99958364 53.95919217 47.00045254 53.95745644 49 54 C49 55.98 49 57.96 49 60 C47.02 60 45.04 60 43 60 C43 59.34 43 58.68 43 58 C42.21625 57.87625 41.4325 57.7525 40.625 57.625 C38 57 38 57 36 55 C35.73008094 52.31160615 35.91262643 49.70858064 36 47 C35.34 47 34.68 47 34 47 C33.67 47.99 33.34 48.98 33 50 C32.34 50 31.68 50 31 50 C31 51.32 31 52.64 31 54 C31.66 54 32.32 54 33 54 C33 55.98 33 57.96 33 60 C31.02 60 29.04 60 27 60 C27 58.02 27 56.04 27 54 C27.66 54 28.32 54 29 54 C29 52.68 29 51.36 29 50 C27.515 49.505 27.515 49.505 26 49 C26 48.34 26 47.68 26 47 C25.34 47 24.68 47 24 47 C24.061875 48.258125 24.12375 49.51625 24.1875 50.8125 C24.18059993 54.71104011 24.18059993 54.71104011 22.75 57 C21 58 21 58 17 58 C17 58.66 17 59.32 17 60 C15.02 60 13.04 60 11 60 C11 58.02 11 56.04 11 54 C13.66666667 54 16.33333333 54 19 54 C19.66 53.34 20.32 52.68 21 52 C21 51.01 21 50.02 21 49 C18.41991408 47.70995704 16.44258426 47.79589776 13.5625 47.75 C12.59441406 47.72421875 11.62632813 47.6984375 10.62890625 47.671875 C7.98628034 47.78236512 7.98628034 47.78236512 6.21484375 49.328125 C4.79910565 51.09960567 4.79910565 51.09960567 4 54 C4.66 54 5.32 54 6 54 C6 55.98 6 57.96 6 60 C4.02 60 2.04 60 0 60 C0 58.02 0 56.04 0 54 C0.66 54 1.32 54 2 54 C1.9071875 52.6078125 1.9071875 52.6078125 1.8125 51.1875 C2 48 2 48 3.09375 46.3125 C5.93677233 44.35500922 8.28487016 44.71143179 11.6875 44.8125 C13.45673828 44.85310547 13.45673828 44.85310547 15.26171875 44.89453125 C16.16535156 44.92933594 17.06898437 44.96414062 18 45 C18 44.01 18 43.02 18 42 C17.443125 42.226875 16.88625 42.45375 16.3125 42.6875 C13.07876916 43.12449065 11.60926022 41.81198627 9 40 C9 40.66 9 41.32 9 42 C7.02 42 5.04 42 3 42 C3 40.02 3 38.04 3 36 C4.98 36 6.96 36 9 36 C9 36.66 9 37.32 9 38 C10.32 36.68 11.64 35.36 13 34 C12.01 33.67 11.02 33.34 10 33 C10 32.34 10 31.68 10 31 C8.68 31 7.36 31 6 31 C6 31.66 6 32.32 6 33 C4.02 33 2.04 33 0 33 C0 31.02 0 29.04 0 27 C1.98 27 3.96 27 6 27 C6 27.66 6 28.32 6 29 C7.32 29 8.64 29 10 29 C10.33 28.01 10.66 27.02 11 26 C11.66 26 12.32 26 13 26 C11.68 24.68 10.36 23.36 9 22 C9 22.66 9 23.32 9 24 C7.02 24 5.04 24 3 24 C3 22.02 3 20.04 3 18 C4.98 18 6.96 18 9 18 C9 18.66 9 19.32 9 20 C9.928125 19.484375 10.85625 18.96875 11.8125 18.4375 C15 17 15 17 18 18 C18 17.01 18 16.02 18 15 C17.09636719 15.03480469 16.19273438 15.06960937 15.26171875 15.10546875 C14.08222656 15.13253906 12.90273437 15.15960938 11.6875 15.1875 C9.92986328 15.23970703 9.92986328 15.23970703 8.13671875 15.29296875 C5 15 5 15 3.09375 13.6875 C1.45598793 11.1606671 1.8046134 8.93079906 2 6 C1.34 6 0.68 6 0 6 C0 4.02 0 2.04 0 0 Z M29 12 C28.67 12.99 28.34 13.98 28 15 C25.69 15 23.38 15 21 15 C20.7525 15.804375 20.505 16.60875 20.25 17.4375 C19 20 19 20 16.875 20.8125 C16.25625 20.874375 15.6375 20.93625 15 21 C15 23.31 15 25.62 15 28 C14.34 28.33 13.68 28.66 13 29 C13 29.66 13 30.32 13 31 C13.66 31.33 14.32 31.66 15 32 C15 34.31 15 36.62 15 39 C15.804375 39.2475 16.60875 39.495 17.4375 39.75 C20 41 20 41 20.8125 43.125 C20.874375 43.74375 20.93625 44.3625 21 45 C23.31 45 25.62 45 28 45 C28.33 45.99 28.66 46.98 29 48 C29.66 48 30.32 48 31 48 C31.33 47.01 31.66 46.02 32 45 C34.31 45 36.62 45 39 45 C39.2475 44.195625 39.495 43.39125 39.75 42.5625 C41 40 41 40 43.125 39.1875 C43.74375 39.125625 44.3625 39.06375 45 39 C45 36.69 45 34.38 45 32 C45.66 31.67 46.32 31.34 47 31 C47 30.34 47 29.68 47 29 C46.34 28.67 45.68 28.34 45 28 C45 25.69 45 23.38 45 21 C44.195625 20.7525 43.39125 20.505 42.5625 20.25 C40 19 40 19 39.1875 16.875 C39.125625 16.25625 39.06375 15.6375 39 15 C36.69 15 34.38 15 32 15 C31.67 14.01 31.34 13.02 31 12 C30.34 12 29.68 12 29 12 Z " fill="#FAAF04" transform="translate(2,2)"/>
<path d="M0 0 C1.15628906 0.00515625 2.31257813 0.0103125 3.50390625 0.015625 C4.65761719 0.01046875 5.81132813 0.0053125 7 0 C10.06640625 0.265625 10.06640625 0.265625 13.06640625 2.265625 C13.45458984 4.20507812 13.45458984 4.20507812 13.46484375 6.546875 C13.47064453 7.80951172 13.47064453 7.80951172 13.4765625 9.09765625 C13.46496094 9.97808594 13.45335938 10.85851563 13.44140625 11.765625 C13.45300781 12.64605469 13.46460937 13.52648438 13.4765625 14.43359375 C13.47269531 15.27535156 13.46882813 16.11710937 13.46484375 16.984375 C13.46145996 17.75716797 13.45807617 18.52996094 13.45458984 19.32617188 C13.06640625 21.265625 13.06640625 21.265625 10.06640625 23.265625 C7.25390625 23.53125 7.25390625 23.53125 4.06640625 23.515625 C3.01453125 23.52078125 1.96265625 23.5259375 0.87890625 23.53125 C-1.93359375 23.265625 -1.93359375 23.265625 -4.93359375 21.265625 C-5.3059082 19.32617188 -5.3059082 19.32617188 -5.296875 16.984375 C-5.29623047 16.14261719 -5.29558594 15.30085938 -5.29492188 14.43359375 C-5.27880859 13.55316406 -5.26269531 12.67273437 -5.24609375 11.765625 C-5.24931641 10.88519531 -5.25253906 10.00476562 -5.25585938 9.09765625 C-5.18318576 0.46931642 -5.18318576 0.46931642 0 0 Z M-0.93359375 3.265625 C-0.93359375 3.925625 -0.93359375 4.585625 -0.93359375 5.265625 C2.36640625 5.265625 5.66640625 5.265625 9.06640625 5.265625 C9.06640625 4.605625 9.06640625 3.945625 9.06640625 3.265625 C5.76640625 3.265625 2.46640625 3.265625 -0.93359375 3.265625 Z M-2.93359375 7.265625 C-2.93359375 7.925625 -2.93359375 8.585625 -2.93359375 9.265625 C-0.44604589 10.50939893 1.29295926 10.39868735 4.06640625 10.390625 C5.39671875 10.39449219 5.39671875 10.39449219 6.75390625 10.3984375 C9.09317591 10.41690402 9.09317591 10.41690402 11.06640625 9.265625 C10.73640625 8.605625 10.40640625 7.945625 10.06640625 7.265625 C5.77640625 7.265625 1.48640625 7.265625 -2.93359375 7.265625 Z M-2.93359375 12.265625 C-2.93359375 12.925625 -2.93359375 13.585625 -2.93359375 14.265625 C-0.44604589 15.50939893 1.29295926 15.39868735 4.06640625 15.390625 C5.39671875 15.39449219 5.39671875 15.39449219 6.75390625 15.3984375 C9.09317591 15.41690402 9.09317591 15.41690402 11.06640625 14.265625 C10.73640625 13.605625 10.40640625 12.945625 10.06640625 12.265625 C5.77640625 12.265625 1.48640625 12.265625 -2.93359375 12.265625 Z M-2.93359375 17.265625 C-2.93359375 17.925625 -2.93359375 18.585625 -2.93359375 19.265625 C-0.44604589 20.50939893 1.29295926 20.39868735 4.06640625 20.390625 C5.39671875 20.39449219 5.39671875 20.39449219 6.75390625 20.3984375 C9.09317591 20.41690402 9.09317591 20.41690402 11.06640625 19.265625 C10.73640625 18.605625 10.40640625 17.945625 10.06640625 17.265625 C5.77640625 17.265625 1.48640625 17.265625 -2.93359375 17.265625 Z " fill="#FAB004" transform="translate(27.93359375,20.734375)"/>
</svg>
