<?xml version="1.0" encoding="UTF-8"?>
<svg version="1.1" xmlns="http://www.w3.org/2000/svg" width="68" height="68">
<path d="M0 0 C1.66666667 1.66666667 3.33333333 3.33333333 5 5 C8.18150892 5.87989974 8.18150892 5.87989974 11 6 C10.7215625 6.8971875 10.7215625 6.8971875 10.4375 7.8125 C9.77906313 10.16408762 9.77906313 10.16408762 11 13 C8.69 12.67 6.38 12.34 4 12 C3.690625 12.78375 3.38125 13.5675 3.0625 14.375 C2 17 2 17 1 19 C1.68707031 18.96519531 2.37414063 18.93039063 3.08203125 18.89453125 C3.98308594 18.86746094 4.88414063 18.84039063 5.8125 18.8125 C7.15248047 18.76029297 7.15248047 18.76029297 8.51953125 18.70703125 C11 19 11 19 12.82421875 20.38671875 C14 22 14 22 14 24 C15.03125 24.061875 16.0625 24.12375 17.125 24.1875 C21.92952697 25.19490082 23.53529968 26.61779254 27 30 C28.27563384 32.55126768 28.20373295 34.46322086 28.25 37.3125 C28.27578125 38.25738281 28.3015625 39.20226563 28.328125 40.17578125 C28 43 28 43 26.49609375 45.3671875 C24.51558116 48.85247598 24.66877003 51.93094297 24.8125 55.8125 C24.874375 58.184375 24.93625 60.55625 25 63 C19.72 63 14.44 63 9 63 C8.505 60.03 8.505 60.03 8 57 C7.05125 57.04125 6.1025 57.0825 5.125 57.125 C2 57 2 57 0 55 C0 53.68 0 52.36 0 51 C-3.465 51.495 -3.465 51.495 -7 52 C-7.12375 52.639375 -7.2475 53.27875 -7.375 53.9375 C-7.684375 54.9584375 -7.684375 54.9584375 -8 56 C-10.70879335 57.35439668 -13.00933268 57.06501451 -16 57 C-15.979375 57.804375 -15.95875 58.60875 -15.9375 59.4375 C-16 62 -16 62 -17 63 C-19.69654854 63.07319621 -22.36691458 63.09242537 -25.0625 63.0625 C-25.82111328 63.05798828 -26.57972656 63.05347656 -27.36132812 63.04882812 C-29.24091871 63.0370068 -31.12046899 63.01907078 -33 63 C-32.88140625 62.2265625 -32.7628125 61.453125 -32.640625 60.65625 C-31.85183912 54.28286013 -31.77204618 50.56425658 -35.0546875 45.06640625 C-36.96761571 40.88484003 -36.78277388 36.45840778 -36 32 C-34.29015514 28.3402044 -31.86780693 26.43390346 -28.25 24.625 C-22.61863749 23.54204567 -17.41265539 22.95779872 -12.125 25.5625 C-7.4194622 29.23281948 -6.325741 32.4230984 -5.60546875 38.12109375 C-5.34400895 41.08081873 -5.14131705 44.03234185 -5 47 C-4.34 47 -3.68 47 -3 47 C-2.96132812 45.71416016 -2.96132812 45.71416016 -2.921875 44.40234375 C-2.31667948 32.20215219 -2.31667948 32.20215219 2 27 C4.61620913 25.32922782 7.11325213 24.20281161 10 23 C7.03 22.67 4.06 22.34 1 22 C1 22.99 1 23.98 1 25 C-2.23253796 27.15502531 -3.25150923 27.46856135 -7 27 C-8.75 26 -8.75 26 -10 24 C-10.28778487 21.98550593 -10.57081398 19.96844814 -10.75 17.94140625 C-11.04447005 15.65466227 -11.78123899 13.95001762 -13 12 C-15.31 12.33 -17.62 12.66 -20 13 C-19.814375 12.401875 -19.62875 11.80375 -19.4375 11.1875 C-18.77906313 8.83591238 -18.77906313 8.83591238 -20 6 C-17.69 6 -15.38 6 -13 6 C-12.773125 5.21625 -12.54625 4.4325 -12.3125 3.625 C-11 1 -11 1 -8.75 -0.375 C-5.34011816 -1.14997315 -3.34687967 -1.0458999 0 0 Z M-10 5 C-11.26010343 7.80857748 -11.26010343 7.80857748 -11 11 C-9.53790702 14.44363894 -9.53790702 14.44363894 -7 17 C-4.5 18 -4.5 18 -2 17 C0.81598095 13.8876 1.97957456 12.04169763 2.0625 7.8125 C1.21680432 4.81342529 1.21680432 4.81342529 -1.5 3.125 C-5.38168606 1.37824127 -6.56807992 2.42605994 -10 5 Z M-15 8 C-14 10 -14 10 -14 10 Z M5 8 C6 10 6 10 6 10 Z M-29 29 C-28.34 29.33 -27.68 29.66 -27 30 C-26.59270772 32.32156597 -26.25561323 34.6568787 -26 37 C-27.32 37 -28.64 37 -30 37 C-29.67 35.68 -29.34 34.36 -29 33 C-30.32 33 -31.64 33 -33 33 C-33.27429625 38.39449293 -33.36055646 41.51925805 -30 46 C-26.535 45.505 -26.535 45.505 -23 45 C-23 46.65 -23 48.3 -23 50 C-24.98 49.67 -26.96 49.34 -29 49 C-28.67 49.99 -28.34 50.98 -28 52 C-25.06556598 51.73343428 -25.06556598 51.73343428 -22 51 C-19.70986347 47.5647952 -19.82157027 46.014669 -20 42 C-21.65 42 -23.3 42 -25 42 C-25 41.01 -25 40.02 -25 39 C-22.6568787 39.25561323 -20.32156597 39.59270772 -18 40 C-17.67 40.66 -17.34 41.32 -17 42 C-14.69 42 -12.38 42 -10 42 C-10.33 41.01 -10.66 40.02 -11 39 C-12.65 39.33 -14.3 39.66 -16 40 C-15.67 38.68 -15.34 37.36 -15 36 C-13.02 36 -11.04 36 -9 36 C-10.24976756 32.34683329 -10.67098753 31.21934164 -14 29 C-14 30.32 -14 31.64 -14 33 C-16.31 33.33 -18.62 33.66 -21 34 C-21 32.68 -21 31.36 -21 30 C-19.68 30.33 -18.36 30.66 -17 31 C-17 29.68 -17 28.36 -17 27 C-23.31268603 26.62447835 -23.31268603 26.62447835 -29 29 Z M2.125 32.25 C0.65666591 35.83926112 1.19452311 38.26551623 2 42 C3.98 42 5.96 42 8 42 C8 40.68 8 39.36 8 38 C7.34 38 6.68 38 6 38 C7.45945946 31.43243243 7.45945946 31.43243243 9.875 29.5 C12.35218837 28.91713215 13.61957438 29.15533284 16 30 C16.99 30.33 17.98 30.66 19 31 C20.125 37.625 20.125 37.625 19 41 C17.3603125 41.2165625 17.3603125 41.2165625 15.6875 41.4375 C12.06877013 41.88288104 12.06877013 41.88288104 9 43 C10.61268692 45.71224618 12.24901874 48.37352812 14 51 C17.06556598 51.73343428 17.06556598 51.73343428 20 52 C20.27714844 51.36191406 20.55429687 50.72382812 20.83984375 50.06640625 C21.20207031 49.24011719 21.56429687 48.41382812 21.9375 47.5625 C22.29714844 46.73878906 22.65679687 45.91507813 23.02734375 45.06640625 C24 43 24 43 25 42 C25.51579536 36.25223163 25.51579536 36.25223163 23.25 31.125 C19.68595587 27.75895832 18.04107181 27.08262475 13.0625 26.6875 C8.08324811 26.83558184 5.32344819 28.41186217 2.125 32.25 Z M13 33 C12.34 34.32 11.68 35.64 11 37 C12.32 37.33 13.64 37.66 15 38 C15.33 36.68 15.66 35.36 16 34 C15.01 33.67 14.02 33.34 13 33 Z " fill="#FCC418" transform="translate(38,3)"/>
<path d="M0 0 C1.65 0.33 3.3 0.66 5 1 C5 1.99 5 2.98 5 4 C2.03 3.505 2.03 3.505 -1 3 C-0.67 2.01 -0.34 1.02 0 0 Z " fill="#FCC814" transform="translate(19,4)"/>
<path d="M0 0 C2.0625 0.4375 2.0625 0.4375 4 1 C4 1.66 4 2.32 4 3 C2.35 3.33 0.7 3.66 -1 4 C-1 1 -1 1 0 0 Z " fill="#FCC314" transform="translate(45,4)"/>
</svg>
