<?xml version="1.0" encoding="UTF-8"?>
<svg version="1.1" xmlns="http://www.w3.org/2000/svg" width="64" height="64" class="service-icon">
<path d="M0 0 C1.29442017 0.00616333 1.29442017 0.00616333 2.61499023 0.01245117 C4.01974609 0.01535156 4.01974609 0.01535156 5.45288086 0.01831055 C6.43321289 0.03055664 7.41354492 0.04280273 8.42358398 0.05541992 C9.4077832 0.05606445 10.39198242 0.05670898 11.40600586 0.05737305 C18.72090866 0.1027446 18.72090866 0.1027446 19.86108398 1.24291992 C20.0022356 3.91350843 19.90355506 6.5672423 19.86108398 9.24291992 C20.56233398 8.87166992 21.26358398 8.50041992 21.98608398 8.11791992 C25.6255205 7.01026533 27.4180881 7.80166583 30.86108398 9.24291992 C30.86108398 10.23291992 30.86108398 11.22291992 30.86108398 12.24291992 C28.88108398 12.24291992 26.90108398 12.24291992 24.86108398 12.24291992 C24.86108398 12.90291992 24.86108398 13.56291992 24.86108398 14.24291992 C23.54108398 13.58291992 22.22108398 12.92291992 20.86108398 12.24291992 C20.73733398 13.37729492 20.61358398 14.51166992 20.48608398 15.68041992 C20.17670898 17.44385742 20.17670898 17.44385742 19.86108398 19.24291992 C16.20766005 21.06963189 11.8826924 20.42762714 7.86108398 20.43041992 C6.93295898 20.44266602 6.00483398 20.45491211 5.04858398 20.4675293 C4.16170898 20.46946289 3.27483398 20.47139648 2.36108398 20.47338867 C1.13905273 20.479552 1.13905273 20.479552 -0.10766602 20.48583984 C-2.13891602 20.24291992 -2.13891602 20.24291992 -4.13891602 18.24291992 C-4.33743703 15.53369192 -4.41731079 12.94988813 -4.38891602 10.24291992 C-4.39665039 9.50557617 -4.40438477 8.76823242 -4.41235352 8.00854492 C-4.38494278 0.49800457 -4.38494278 0.49800457 0 0 Z " fill="var(--orange-yellow-crayola)" transform="translate(6.138916015625,1.757080078125)"/>
<path d="M0 0 C0.69738281 0.01804688 1.39476562 0.03609375 2.11328125 0.0546875 C3.82611539 0.10161446 5.53823824 0.17335395 7.25 0.25 C7.25 1.24 7.25 2.23 7.25 3.25 C7.91 3.25 8.57 3.25 9.25 3.25 C9.25 9.85 9.25 16.45 9.25 23.25 C3.31 23.25 -2.63 23.25 -8.75 23.25 C-8.75 22.26 -8.75 21.27 -8.75 20.25 C-9.74 20.25 -10.73 20.25 -11.75 20.25 C-11.8581866 17.66554227 -11.93737237 15.08562648 -12 12.5 C-12.03351562 11.77039062 -12.06703125 11.04078125 -12.1015625 10.2890625 C-12.16300626 6.90965571 -12.00033126 4.6587041 -10.21875 1.75 C-6.8346863 -0.30613997 -3.82767588 -0.18812774 0 0 Z " fill="var(--orange-yellow-crayola)" transform="translate(13.75,38.75)"/>
<path d="M0 0 C0.89589844 -0.01417969 1.79179688 -0.02835938 2.71484375 -0.04296875 C5.0625 0.1875 5.0625 0.1875 7.0625 2.1875 C7.28955078 4.15869141 7.28955078 4.15869141 7.2578125 6.5390625 C7.25281738 7.30557129 7.24782227 8.07208008 7.24267578 8.86181641 C7.21536377 10.32240479 7.21536377 10.32240479 7.1875 11.8125 C7.14625 14.90625 7.105 18 7.0625 21.1875 C-0.8575 21.1875 -8.7775 21.1875 -16.9375 21.1875 C-16.9375 18.5475 -16.9375 15.9075 -16.9375 13.1875 C-15.2875 12.8575 -13.6375 12.5275 -11.9375 12.1875 C-11.6075 10.2075 -11.2775 8.2275 -10.9375 6.1875 C-9.2875 6.1875 -7.6375 6.1875 -5.9375 6.1875 C-5.958125 5.383125 -5.97875 4.57875 -6 3.75 C-5.89142027 -0.70176894 -3.95055617 0.02833971 0 0 Z " fill="var(--orange-yellow-crayola)" transform="translate(54.9375,40.8125)"/>
<path d="M0 0 C1.98 0 3.96 0 6 0 C6.33 1.32 6.66 2.64 7 4 C7.969375 3.979375 8.93875 3.95875 9.9375 3.9375 C13 4 13 4 14 5 C14.0450286 6.66605828 14.03874921 8.33378384 14 10 C14 12.22926402 14.01067066 14.45883857 14.0625 16.6875 C14 19 14 19 13 20 C11.00041636 20.04080783 8.99954746 20.04254356 7 20 C6.67 21.32 6.34 22.64 6 24 C4.02 24 2.04 24 0 24 C-0.33 22.68 -0.66 21.36 -1 20 C-1.969375 20.020625 -2.93875 20.04125 -3.9375 20.0625 C-7 20 -7 20 -8 19 C-8.0450286 17.33394172 -8.03874921 15.66621616 -8 14 C-8 11.77073598 -8.01067066 9.54116143 -8.0625 7.3125 C-8 5 -8 5 -7 4 C-5.00041636 3.95919217 -2.99954746 3.95745644 -1 4 C-0.67 2.68 -0.34 1.36 0 0 Z M1 11 C1 11.66 1 12.32 1 13 C2.32 13 3.64 13 5 13 C5 12.34 5 11.68 5 11 C3.68 11 2.36 11 1 11 Z " fill="var(--orange-yellow-crayola)" transform="translate(29,20)"/>
<path d="M0 0 C0.928125 -0.01224609 1.85625 -0.02449219 2.8125 -0.03710938 C3.699375 -0.03904297 4.58625 -0.04097656 5.5 -0.04296875 C6.3146875 -0.04707764 7.129375 -0.05118652 7.96875 -0.05541992 C10 0.1875 10 0.1875 12 2.1875 C12.23046875 5.19140625 12.23046875 5.19140625 12.1875 8.75 C12.18105469 9.92691406 12.17460938 11.10382812 12.16796875 12.31640625 C12 15.1875 12 15.1875 11 16.1875 C9.37742456 16.2866657 7.75060169 16.31829777 6.125 16.3203125 C5.14015625 16.32160156 4.1553125 16.32289062 3.140625 16.32421875 C2.10421875 16.32035156 1.0678125 16.31648438 0 16.3125 C-1.55460937 16.31830078 -1.55460937 16.31830078 -3.140625 16.32421875 C-4.12546875 16.32292969 -5.1103125 16.32164063 -6.125 16.3203125 C-7.03507812 16.31918457 -7.94515625 16.31805664 -8.8828125 16.31689453 C-11 16.1875 -11 16.1875 -12 15.1875 C-12.07271741 12.83436445 -12.08370868 10.47916332 -12.0625 8.125 C-12.05347656 6.83464844 -12.04445312 5.54429688 -12.03515625 4.21484375 C-12.02355469 3.21582031 -12.01195312 2.21679688 -12 1.1875 C-8.34657606 -0.63921197 -4.02160841 0.00279278 0 0 Z " fill="var(--orange-yellow-crayola)" transform="translate(50,3.8125)"/>
<path d="M0 0 C1.62463842 -0.05395478 3.24978541 -0.09277195 4.875 -0.125 C5.77992187 -0.14820313 6.68484375 -0.17140625 7.6171875 -0.1953125 C10 0 10 0 12 2 C12.22705078 3.97119141 12.22705078 3.97119141 12.1953125 6.3515625 C12.18564453 7.62773438 12.18564453 7.62773438 12.17578125 8.9296875 C12.15902344 9.81914063 12.14226563 10.70859375 12.125 11.625 C12.11597656 12.5221875 12.10695313 13.419375 12.09765625 14.34375 C12.07405132 16.56261322 12.03817962 18.7813397 12 21 C7.71 21 3.42 21 -1 21 C-0.67 20.34 -0.34 19.68 0 19 C1.32 19 2.64 19 4 19 C4 13.39 4 7.78 4 2 C2.68 1.67 1.36 1.34 0 1 C0 0.67 0 0.34 0 0 Z " fill="var(--orange-yellow-crayola)" transform="translate(50,41)"/>
<path d="M0 0 C4.95 0 9.9 0 15 0 C15.09765625 7.71484375 15.09765625 7.71484375 15 10 C14 11 14 11 10.83984375 11.09765625 C8.90818359 11.08025391 8.90818359 11.08025391 6.9375 11.0625 C5.64714844 11.05347656 4.35679688 11.04445313 3.02734375 11.03515625 C2.02832031 11.02355469 1.02929688 11.01195312 0 11 C0 7.37 0 3.74 0 0 Z " fill="var(--orange-yellow-crayola)" transform="translate(4,9)"/>
<path d="M0 0 C0.69738281 0.01804688 1.39476562 0.03609375 2.11328125 0.0546875 C3.82611539 0.10161446 5.53823824 0.17335395 7.25 0.25 C7.25 1.24 7.25 2.23 7.25 3.25 C7.91 3.25 8.57 3.25 9.25 3.25 C9.25 9.85 9.25 16.45 9.25 23.25 C3.31 23.25 -2.63 23.25 -8.75 23.25 C-8.75 22.26 -8.75 21.27 -8.75 20.25 C-9.74 20.25 -10.73 20.25 -11.75 20.25 C-11.8581866 17.66554227 -11.93737237 15.08562648 -12 12.5 C-12.03351562 11.77039062 -12.06703125 11.04078125 -12.1015625 10.2890625 C-12.16300626 6.90965571 -12.00033126 4.6587041 -10.21875 1.75 C-6.8346863 -0.30613997 -3.82767588 -0.18812774 0 0 Z M-5.75 1.25 C-5.75 2.9 -5.75 4.55 -5.75 6.25 C-7.07 6.25 -8.39 6.25 -9.75 6.25 C-9.75 10.54 -9.75 14.83 -9.75 19.25 C-9.09 19.25 -8.43 19.25 -7.75 19.25 C-7.75 19.91 -7.75 20.57 -7.75 21.25 C-2.47 21.25 2.81 21.25 8.25 21.25 C8.25 15.64 8.25 10.03 8.25 4.25 C7.59 4.25 6.93 4.25 6.25 4.25 C5.92 3.26 5.59 2.27 5.25 1.25 C1.62 1.25 -2.01 1.25 -5.75 1.25 Z " fill="var(--orange-yellow-crayola)" transform="translate(13.75,38.75)"/>
<path d="M0 0 C0.928125 -0.01224609 1.85625 -0.02449219 2.8125 -0.03710938 C3.699375 -0.03904297 4.58625 -0.04097656 5.5 -0.04296875 C6.3146875 -0.04707764 7.129375 -0.05118652 7.96875 -0.05541992 C10 0.1875 10 0.1875 12 2.1875 C12.23046875 5.19140625 12.23046875 5.19140625 12.1875 8.75 C12.18105469 9.92691406 12.17460938 11.10382812 12.16796875 12.31640625 C12 15.1875 12 15.1875 11 16.1875 C9.37742456 16.2866657 7.75060169 16.31829777 6.125 16.3203125 C5.14015625 16.32160156 4.1553125 16.32289062 3.140625 16.32421875 C2.10421875 16.32035156 1.0678125 16.31648438 0 16.3125 C-1.55460937 16.31830078 -1.55460937 16.31830078 -3.140625 16.32421875 C-4.12546875 16.32292969 -5.1103125 16.32164063 -6.125 16.3203125 C-7.03507812 16.31918457 -7.94515625 16.31805664 -8.8828125 16.31689453 C-11 16.1875 -11 16.1875 -12 15.1875 C-12.07271741 12.83436445 -12.08370868 10.47916332 -12.0625 8.125 C-12.05347656 6.83464844 -12.04445312 5.54429688 -12.03515625 4.21484375 C-12.02355469 3.21582031 -12.01195312 2.21679688 -12 1.1875 C-8.34657606 -0.63921197 -4.02160841 0.00279278 0 0 Z M-10 2.1875 C-10.78277836 6.10139179 -11.12038689 7.8427415 -10.5625 11.5 C-10.376875 12.716875 -10.19125 13.93375 -10 15.1875 C-6.85418577 15.21638514 -3.70840531 15.23425923 -0.5625 15.25 C0.33533203 15.25837891 1.23316406 15.26675781 2.15820312 15.27539062 C3.43920898 15.28022461 3.43920898 15.28022461 4.74609375 15.28515625 C5.53685303 15.29039307 6.3276123 15.29562988 7.14233398 15.30102539 C9.01592689 15.39245909 9.01592689 15.39245909 10 14.1875 C10.07244053 12.16785801 10.08377188 10.14582876 10.0625 8.125 C10.0315625 5.1859375 10.0315625 5.1859375 10 2.1875 C3.4 2.1875 -3.2 2.1875 -10 2.1875 Z " fill="var(--orange-yellow-crayola)" transform="translate(50,3.8125)"/>
<path d="M0 0 C5.26909052 0.3512727 8.59732557 0.9425872 13 4 C13.721875 4.2475 14.44375 4.495 15.1875 4.75 C18.12262259 6.77422248 18.25745066 9.65852796 19 13 C18 14 18 14 15.63671875 14.08984375 C7.78701683 13.68436246 7.78701683 13.68436246 5.3828125 11.59375 C4.3125 9.9375 4.3125 9.9375 3 7 C5.64 7.33 8.28 7.66 11 8 C11 7.34 11 6.68 11 6 C8.69 6 6.38 6 4 6 C4.66 4.68 5.32 3.36 6 2 C4.35 1.67 2.7 1.34 1 1 C0.67 2.32 0.34 3.64 0 5 C-0.5625 3.0625 -0.5625 3.0625 -1 1 C-0.67 0.67 -0.34 0.34 0 0 Z " fill="var(--orange-yellow-crayola)" transform="translate(23,25)"/>
<path d="M0 0 C3.63 0 7.26 0 11 0 C11.1953125 6.8359375 11.1953125 6.8359375 11 9 C9 11 9 11 6.3984375 11.1953125 C5.40070312 11.17210937 4.40296875 11.14890625 3.375 11.125 C1.87066406 11.09792969 1.87066406 11.09792969 0.3359375 11.0703125 C-0.43492188 11.04710937 -1.20578125 11.02390625 -2 11 C-2 9.68 -2 8.36 -2 7 C-0.35 6.67 1.3 6.34 3 6 C2.01 5.34 1.02 4.68 0 4 C0 2.68 0 1.36 0 0 Z " fill="var(--orange-yellow-crayola)" transform="translate(8,40)"/>
<path d="M0 0 C1.65 0.33 3.3 0.66 5 1 C5 1.99 5 2.98 5 4 C5.66 4.33 6.32 4.66 7 5 C7 5.99 7 6.98 7 8 C6.01 8 5.02 8 4 8 C6.21934164 11.32901247 7.34683329 11.75023244 11 13 C11 14.65 11 16.3 11 18 C9.02 18 7.04 18 5 18 C4.67 16.68 4.34 15.36 4 14 C2.5459375 14.0309375 2.5459375 14.0309375 1.0625 14.0625 C-2 14 -2 14 -3 13 C-3.04063832 11.33382885 -3.042721 9.66611905 -3 8 C-2.01 7.67 -1.02 7.34 0 7 C0 4.69 0 2.38 0 0 Z " fill="var(--orange-yellow-crayola)" transform="translate(24,26)"/>
<path d="M0 0 C0.86931152 0.01047363 1.73862305 0.02094727 2.63427734 0.03173828 C3.57529297 0.03818359 4.51630859 0.04462891 5.48583984 0.05126953 C6.47068359 0.06802734 7.45552734 0.08478516 8.47021484 0.10205078 C9.46279297 0.11107422 10.45537109 0.12009766 11.47802734 0.12939453 C13.93399618 0.15300962 16.38948653 0.18594279 18.84521484 0.22705078 C19.17521484 0.88705078 19.50521484 1.54705078 19.84521484 2.22705078 C11.43021484 2.72205078 11.43021484 2.72205078 2.84521484 3.22705078 C2.84521484 3.88705078 2.84521484 4.54705078 2.84521484 5.22705078 C1.85521484 5.22705078 0.86521484 5.22705078 -0.15478516 5.22705078 C-0.15478516 4.56705078 -0.15478516 3.90705078 -0.15478516 3.22705078 C-0.81478516 2.89705078 -1.47478516 2.56705078 -2.15478516 2.22705078 C-1.82478516 7.50705078 -1.49478516 12.78705078 -1.15478516 18.22705078 C5.11521484 18.22705078 11.38521484 18.22705078 17.84521484 18.22705078 C17.84521484 18.88705078 17.84521484 19.54705078 17.84521484 20.22705078 C14.55362168 20.28495431 11.26215881 20.32061339 7.97021484 20.35205078 C6.56449219 20.3771875 6.56449219 20.3771875 5.13037109 20.40283203 C3.78652344 20.4125 3.78652344 20.4125 2.41552734 20.42236328 C1.58811035 20.43283691 0.76069336 20.44331055 -0.09179688 20.45410156 C-2.15478516 20.22705078 -2.15478516 20.22705078 -4.15478516 18.22705078 C-4.35330617 15.51782277 -4.43317993 12.93401899 -4.40478516 10.22705078 C-4.41251953 9.48970703 -4.42025391 8.75236328 -4.42822266 7.99267578 C-4.40074467 0.46370865 -4.40074467 0.46370865 0 0 Z " fill="var(--orange-yellow-crayola)" transform="translate(6.15478515625,1.77294921875)"/>
<path d="M0 0 C1.65 0 3.3 0 5 0 C5 5.61 5 11.22 5 17 C3.35 17 1.7 17 0 17 C0 11.39 0 5.78 0 0 Z " fill="var(--orange-yellow-crayola)" transform="translate(55,43)"/>
<path d="M0 0 C0.66 0 1.32 0 2 0 C2 5.61 2 11.22 2 17 C-3.28 17 -8.56 17 -14 17 C-14 16.34 -14 15.68 -14 15 C-14.66 14.67 -15.32 14.34 -16 14 C-11.05 14 -6.1 14 -1 14 C-0.67 9.38 -0.34 4.76 0 0 Z " fill="var(--orange-yellow-crayola)" transform="translate(20,43)"/>
<path d="M0 0 C4.62 0 9.24 0 14 0 C14 1.65 14 3.3 14 5 C9.05 5 4.1 5 -1 5 C-0.67 3.35 -0.34 1.7 0 0 Z " fill="var(--orange-yellow-crayola)" transform="translate(40,6)"/>
<path d="M0 0 C1.32 0 2.64 0 4 0 C4 5.61 4 11.22 4 17 C2.68 17 1.36 17 0 17 C0 11.39 0 5.78 0 0 Z " fill="var(--orange-yellow-crayola)" transform="translate(50,43)"/>
<path d="M0 0 C4.62 0 9.24 0 14 0 C14 1.65 14 3.3 14 5 C11.03 5 8.06 5 5 5 C5 3.68 5 2.36 5 1 C1.72226496 1.75150023 1.72226496 1.75150023 0 5 C0 3.35 0 1.7 0 0 Z " fill="var(--orange-yellow-crayola)" transform="translate(40,13)"/>
<path d="M0 0 C1.65 0 3.3 0 5 0 C5 3.3 5 6.6 5 10 C3.35 10.33 1.7 10.66 0 11 C0 7.37 0 3.74 0 0 Z " fill="var(--orange-yellow-crayola)" transform="translate(20,9)"/>
<path d="M0 0 C1.32 0.66 2.64 1.32 4 2 C4 2.66 4 3.32 4 4 C5.98 4 7.96 4 10 4 C10.5625 5.9375 10.5625 5.9375 11 8 C10.67 8.33 10.34 8.66 10 9 C7.66055264 8.71269945 5.3260857 8.38063221 3 8 C2.67 6.35 2.34 4.7 2 3 C0.68 3.33 -0.64 3.66 -2 4 C-1.34 2.68 -0.68 1.36 0 0 Z " fill="var(--orange-yellow-crayola)" transform="translate(31,21)"/>
<path d="M0 0 C0.66 1.32 1.32 2.64 2 4 C2.69867187 3.98839844 3.39734375 3.97679687 4.1171875 3.96484375 C5.02726562 3.95582031 5.93734375 3.94679687 6.875 3.9375 C7.77992187 3.92589844 8.68484375 3.91429687 9.6171875 3.90234375 C12 4 12 4 14 5 C14 6.65 14 8.3 14 10 C12.02 10 10.04 10 8 10 C7.67 8.68 7.34 7.36 7 6 C5.5459375 6.0309375 5.5459375 6.0309375 4.0625 6.0625 C1 6 1 6 0 5 C-0.04063832 3.33382885 -0.042721 1.66611905 0 0 Z " fill="var(--orange-yellow-crayola)" transform="translate(21,34)"/>
<path d="M0 0 C0.99 0.33 1.98 0.66 3 1 C2.67 1.66 2.34 2.32 2 3 C2.99 3 3.98 3 5 3 C4.67 2.01 4.34 1.02 4 0 C7.3 0 10.6 0 14 0 C14 1.32 14 2.64 14 4 C9.38 4 4.76 4 0 4 C0 2.68 0 1.36 0 0 Z " fill="var(--orange-yellow-crayola)" transform="translate(4,4)"/>
<path d="M0 0 C1.32 0.33 2.64 0.66 4 1 C4 4.63 4 8.26 4 12 C2.68 12 1.36 12 0 12 C0 8.04 0 4.08 0 0 Z " fill="var(--orange-yellow-crayola)" transform="translate(40,54)"/>
<path d="M0 0 C1.9375 0.8125 1.9375 0.8125 4 2 C4.33 2.99 4.66 3.98 5 5 C1.67438135 6.76062164 0.40826005 7.10784228 -3.3125 6.125 C-4.199375 5.75375 -5.08625 5.3825 -6 5 C-6 4.01 -6 3.02 -6 2 C-4.02 2 -2.04 2 0 2 C0 1.34 0 0.68 0 0 Z " fill="var(--orange-yellow-crayola)" transform="translate(33,48)"/>
<path d="M0 0 C0.66 0 1.32 0 2 0 C3.76062164 3.32561865 4.10784228 4.59173995 3.125 8.3125 C2.75375 9.199375 2.3825 10.08625 2 11 C1.01 11 0.02 11 -1 11 C-1 9.02 -1 7.04 -1 5 C-1.66 5 -2.32 5 -3 5 C-1.125 1.125 -1.125 1.125 0 0 Z " fill="var(--orange-yellow-crayola)" transform="translate(51,26)"/>
<path d="M0 0 C0.99 0 1.98 0 3 0 C3 1.98 3 3.96 3 6 C3.66 6 4.32 6 5 6 C4.1875 7.9375 4.1875 7.9375 3 10 C2.01 10.33 1.02 10.66 0 11 C-1.76062164 7.67438135 -2.10784228 6.40826005 -1.125 2.6875 C-0.568125 1.3571875 -0.568125 1.3571875 0 0 Z " fill="var(--orange-yellow-crayola)" transform="translate(11,27)"/>
<path d="M0 0 C0.33 1.32 0.66 2.64 1 4 C-0.98 4 -2.96 4 -5 4 C-5 4.66 -5 5.32 -5 6 C-6.9375 5.1875 -6.9375 5.1875 -9 4 C-9.33 3.01 -9.66 2.02 -10 1 C-6.1496895 -1.56687367 -4.41430237 -0.83288724 0 0 Z " fill="var(--orange-yellow-crayola)" transform="translate(36,10)"/>
<path d="M0 0 C3.3 0 6.6 0 10 0 C10.33 1.32 10.66 2.64 11 4 C7.37 4 3.74 4 0 4 C0 2.68 0 1.36 0 0 Z " fill="var(--orange-yellow-crayola)" transform="translate(6,47)"/>
<path d="M0 0 C2.64 0 5.28 0 8 0 C6.68 0.33 5.36 0.66 4 1 C4 6.61 4 12.22 4 18 C5.65 18 7.3 18 9 18 C9 18.33 9 18.66 9 19 C5.37 19.33 1.74 19.66 -2 20 C-1.67 19.34 -1.34 18.68 -1 18 C0.32 18 1.64 18 3 18 C3 12.39 3 6.78 3 1 C2.01 0.67 1.02 0.34 0 0 Z " fill="var(--orange-yellow-crayola)" transform="translate(51,42)"/>
<path d="M0 0 C0 1.98 0 3.96 0 6 C-1.32 6 -2.64 6 -4 6 C-4 9.96 -4 13.92 -4 18 C-4.33 18 -4.66 18 -5 18 C-5.0809723 15.56183415 -5.14046972 13.12635616 -5.1875 10.6875 C-5.21263672 9.99720703 -5.23777344 9.30691406 -5.26367188 8.59570312 C-5.33777767 3.4824036 -5.33777767 3.4824036 -3.61328125 1.01953125 C-2 0 -2 0 0 0 Z " fill="var(--orange-yellow-crayola)" transform="translate(8,39)"/>
<path d="M0 0 C3.63 0 7.26 0 11 0 C11 0.99 11 1.98 11 3 C7.37 3 3.74 3 0 3 C0 2.01 0 1.02 0 0 Z " fill="var(--orange-yellow-crayola)" transform="translate(6,52)"/>
<path d="M0 0 C0 0.33 0 0.66 0 1 C-3.3 1.33 -6.6 1.66 -10 2 C-10.33 4.97 -10.66 7.94 -11 11 C-11.33 11 -11.66 11 -12 11 C-12 7.04 -12 3.08 -12 -1 C-7.03429151 -2.24142712 -4.84452938 -1.37261666 0 0 Z " fill="var(--orange-yellow-crayola)" transform="translate(16,46)"/>
<path d="M0 0 C2.475 0.495 2.475 0.495 5 1 C5 1.99 5 2.98 5 4 C5.66 4.33 6.32 4.66 7 5 C7 5.99 7 6.98 7 8 C4.08482708 6.92598892 2.22189824 6.22189824 0 4 C0 2.68 0 1.36 0 0 Z " fill="var(--orange-yellow-crayola)" transform="translate(24,26)"/>
<path d="M0 0 C0.99 0 1.98 0 3 0 C3 1.32 3 2.64 3 4 C5.64 4 8.28 4 11 4 C11 4.33 11 4.66 11 5 C6.71 5 2.42 5 -2 5 C-1.34 3.35 -0.68 1.7 0 0 Z " fill="var(--orange-yellow-crayola)" transform="translate(42,14)"/>
<path d="M0 0 C1.65 0 3.3 0 5 0 C5 1.65 5 3.3 5 5 C3.35 5 1.7 5 0 5 C0 3.35 0 1.7 0 0 Z " fill="var(--orange-yellow-crayola)" transform="translate(55,13)"/>
<path d="M0 0 C1.65 0 3.3 0 5 0 C5 1.65 5 3.3 5 5 C3.35 5 1.7 5 0 5 C0 3.35 0 1.7 0 0 Z " fill="var(--orange-yellow-crayola)" transform="translate(55,6)"/>
<path d="M0 0 C4.62 0 9.24 0 14 0 C14 0.33 14 0.66 14 1 C7.565 1.495 7.565 1.495 1 2 C1 2.99 1 3.98 1 5 C0.34 5 -0.32 5 -1 5 C-0.67 3.35 -0.34 1.7 0 0 Z " fill="var(--orange-yellow-crayola)" transform="translate(40,6)"/>
<path d="M0 0 C1.32 0.33 2.64 0.66 4 1 C4 4.63 4 8.26 4 12 C2.68 12 1.36 12 0 12 C0 8.04 0 4.08 0 0 Z " fill="var(--orange-yellow-crayola)" transform="translate(40,54)"/>
<path d="M0 0 C0.99 0.495 0.99 0.495 2 1 C2 1.66 2 2.32 2 3 C2.66 3 3.32 3 4 3 C4.33 2.01 4.66 1.02 5 0 C5.33 0 5.66 0 6 0 C6 1.65 6 3.3 6 5 C4.02 5 2.04 5 0 5 C0 3.35 0 1.7 0 0 Z " fill="var(--orange-yellow-crayola)" transform="translate(29,39)"/>
<path d="M0 0 C0.33 0 0.66 0 1 0 C1.33 3.96 1.66 7.92 2 12 C1.01 12 0.02 12 -1 12 C-1.08159574 7.83861737 -0.98248524 4.0527516 0 0 Z " fill="var(--orange-yellow-crayola)" transform="translate(60,7)"/>
<path d="M0 0 C3.96 0 7.92 0 12 0 C12 0.33 12 0.66 12 1 C9.36 1.33 6.72 1.66 4 2 C4 2.66 4 3.32 4 4 C3.01 4 2.02 4 1 4 C0.67 2.68 0.34 1.36 0 0 Z " fill="var(--orange-yellow-crayola)" transform="translate(5,3)"/>
<path d="M0 0 C1.98 0 3.96 0 6 0 C6 0.99 6 1.98 6 3 C4.02 3 2.04 3 0 3 C0 2.01 0 1.02 0 0 Z " fill="var(--orange-yellow-crayola)" transform="translate(11,43)"/>
</svg>