<?xml version="1.0" encoding="UTF-8"?>
<svg version="1.1" xmlns="http://www.w3.org/2000/svg" width="64" height="64">
<path d="M0 0 C21.12 0 42.24 0 64 0 C64 6 64 6 62.34570312 8.34265137 C59.48494022 10.36391375 57.95024318 10.50620164 54.46875 10.51757812 C53.36080078 10.53018677 52.25285156 10.54279541 51.11132812 10.55578613 C49.91958984 10.54768921 48.72785156 10.53959229 47.5 10.53125 C45.65825195 10.53699036 45.65825195 10.53699036 43.77929688 10.54284668 C41.18358541 10.54556842 38.58784664 10.53818911 35.9921875 10.52148438 C32.01500401 10.50008075 28.03962718 10.52127963 24.0625 10.546875 C21.54166267 10.54423177 19.02082647 10.53910691 16.5 10.53125 C15.30826172 10.53934692 14.11652344 10.54744385 12.88867188 10.55578613 C11.22674805 10.53687317 11.22674805 10.53687317 9.53125 10.51757812 C8.55736328 10.51439575 7.58347656 10.51121338 6.58007812 10.50793457 C3.17344737 9.83727832 1.99461997 8.82458323 0 6 C0 4.02 0 2.04 0 0 Z M4 3 C4.99 4.485 4.99 4.485 6 6 C8.28336556 6.45863843 8.28336556 6.45863843 10.96875 6.38818359 C12.52045898 6.40236832 12.52045898 6.40236832 14.10351562 6.4168396 C15.22435547 6.41076691 16.34519531 6.40469421 17.5 6.3984375 C19.21993164 6.40274277 19.21993164 6.40274277 20.97460938 6.40713501 C23.40234876 6.40917933 25.83010449 6.40362393 28.2578125 6.39111328 C31.98474784 6.37506567 35.71059859 6.39095049 39.4375 6.41015625 C41.79166907 6.40817388 44.14583747 6.40433035 46.5 6.3984375 C48.18125977 6.40754654 48.18125977 6.40754654 49.89648438 6.4168396 C50.93095703 6.40738312 51.96542969 6.39792664 53.03125 6.38818359 C53.94455078 6.38579681 54.85785156 6.38341003 55.79882812 6.38095093 C56.52521484 6.25523712 57.25160156 6.12952332 58 6 C58.66 5.01 59.32 4.02 60 3 C41.52 3 23.04 3 4 3 Z " fill="#FBC418" transform="translate(0,49)"/>
<path d="M0 0 C1.25550659 -0.00477356 1.25550659 -0.00477356 2.53637695 -0.00964355 C3.48746338 -0.0222522 4.4385498 -0.03486084 5.41845703 -0.04785156 C6.44350342 -0.03975464 7.4685498 -0.03165771 8.5246582 -0.02331543 C9.5787085 -0.02714233 10.63275879 -0.03096924 11.71875 -0.03491211 C13.94800776 -0.03763494 16.17729726 -0.03024791 18.40649414 -0.0135498 C21.82420897 0.00785348 25.23982147 -0.01334006 28.6574707 -0.03894043 C30.82153786 -0.03629722 32.9856037 -0.03117239 35.1496582 -0.02331543 C36.17470459 -0.03141235 37.19975098 -0.03950928 38.25585938 -0.04785156 C39.68248901 -0.0289386 39.68248901 -0.0289386 41.13793945 -0.00964355 C41.97494385 -0.00646118 42.81194824 -0.00327881 43.67431641 0 C45.8371582 0.50793457 45.8371582 0.50793457 47.60957336 2.32830811 C49.42048657 5.54365765 49.17376443 8.23301176 49.13012695 11.89855957 C49.12588211 12.60317322 49.12163727 13.30778687 49.11726379 14.03375244 C49.10052358 16.27554169 49.06288225 18.51641888 49.0246582 20.75793457 C49.00960524 22.28135905 48.9959179 23.80479768 48.98364258 25.32824707 C48.95063611 29.05510398 48.89888674 32.7814302 48.8371582 36.50793457 C47.5171582 36.50793457 46.1971582 36.50793457 44.8371582 36.50793457 C44.5071582 26.27793457 44.1771582 16.04793457 43.8371582 5.50793457 C40.47043942 3.82457518 36.6641922 4.36639168 32.9621582 4.37512207 C32.08188965 4.37416534 31.20162109 4.37320862 30.29467773 4.3722229 C28.43188404 4.37154181 26.56908797 4.37339114 24.70629883 4.37756348 C21.84882292 4.38291273 18.9915042 4.37761608 16.1340332 4.37121582 C14.32674119 4.37187661 12.51944927 4.3731578 10.7121582 4.37512207 C9.85380371 4.37309784 8.99544922 4.37107361 8.11108398 4.36898804 C3.83915018 4.26150779 3.83915018 4.26150779 -0.1628418 5.50793457 C-0.4928418 15.73793457 -0.8228418 25.96793457 -1.1628418 36.50793457 C-2.4828418 36.50793457 -3.8028418 36.50793457 -5.1628418 36.50793457 C-5.23711829 32.02391973 -5.29150291 27.54023283 -5.32763672 23.05578613 C-5.3427033 21.53098307 -5.36316056 20.00622321 -5.38916016 18.48156738 C-5.42563886 16.28712291 -5.44258894 14.09325241 -5.45581055 11.89855957 C-5.471521 10.57888184 -5.48723145 9.2592041 -5.50341797 7.89953613 C-5.09725277 3.85477131 -4.255001 0.99926962 0 0 Z " fill="#FBC318" transform="translate(10.162841796875,8.4920654296875)"/>
<path d="M0 0 C0.99 0.33 1.98 0.66 3 1 C2.3440206 6.63587931 0.43967159 11.60988342 -1.5625 16.875 C-1.89185547 17.75414063 -2.22121094 18.63328125 -2.56054688 19.5390625 C-3.36886614 21.69458053 -4.18212294 23.84809441 -5 26 C-6.32 26 -7.64 26 -9 26 C-8.42979207 20.09201224 -6.71414333 15.11145154 -4.5 9.625 C-4.17902344 8.80644531 -3.85804687 7.98789062 -3.52734375 7.14453125 C-1.15232229 1.15232229 -1.15232229 1.15232229 0 0 Z " fill="#FCC518" transform="translate(35,17)"/>
<path d="M0 0 C4.25219775 0.47246642 6.37314725 2.77272377 9 6 C9.19996304 9.1994086 7.75849685 10.28719293 5.6875 12.75 C3 15 3 15 -1 15 C-0.40072174 11.64404172 0.84622436 9.62198774 3 7 C1.68 6.01 0.36 5.02 -1 4 C-0.67 2.68 -0.34 1.36 0 0 Z " fill="#FCC517" transform="translate(40,23)"/>
<path d="M0 0 C-0.59927826 3.35595828 -1.84622436 5.37801226 -4 8 C-2.68 9.32 -1.36 10.64 0 12 C-0.33 12.99 -0.66 13.98 -1 15 C-5.25219775 14.52753358 -7.37314725 12.22727623 -10 9 C-10.19996304 5.8005914 -8.75849685 4.71280707 -6.6875 2.25 C-4 0 -4 0 0 0 Z " fill="#FCC417" transform="translate(25,23)"/>
</svg>
